<?xml version="1.0" encoding="UTF-8" standalone="no"?>
<!-- Created with Inkscape (http://www.inkscape.org/) -->

<svg
   xmlns:dc="http://purl.org/dc/elements/1.1/"
   xmlns:cc="http://creativecommons.org/ns#"
   xmlns:rdf="http://www.w3.org/1999/02/22-rdf-syntax-ns#"
   xmlns:svg="http://www.w3.org/2000/svg"
   xmlns="http://www.w3.org/2000/svg"
   xmlns:sodipodi="http://sodipodi.sourceforge.net/DTD/sodipodi-0.dtd"
   xmlns:inkscape="http://www.inkscape.org/namespaces/inkscape"
   width="36.085991mm"
   height="7.7216001mm"
   viewBox="0 0 127.86375 27.36"
   id="svg2"
   version="1.1"
   inkscape:version="0.91 r13725"
   sodipodi:docname="logo.svg">
  <defs
     id="defs4" />
  <sodipodi:namedview
     id="base"
     pagecolor="#ffffff"
     bordercolor="#666666"
     borderopacity="1.0"
     inkscape:pageopacity="0.0"
     inkscape:pageshadow="2"
     inkscape:zoom="1.42"
     inkscape:cx="-203.83594"
     inkscape:cy="-182.42877"
     inkscape:document-units="px"
     inkscape:current-layer="flowRoot3336"
     showgrid="false"
     inkscape:window-width="1920"
     inkscape:window-height="1058"
     inkscape:window-x="0"
     inkscape:window-y="0"
     inkscape:window-maximized="1"
     fit-margin-top="0"
     fit-margin-left="0"
     fit-margin-right="0"
     fit-margin-bottom="0"
     inkscape:showpageshadow="false" />
  <metadata
     id="metadata7">
    <rdf:RDF>
      <cc:Work
         rdf:about="">
        <dc:format>image/svg+xml</dc:format>
        <dc:type
           rdf:resource="http://purl.org/dc/dcmitype/StillImage" />
        <dc:title></dc:title>
      </cc:Work>
    </rdf:RDF>
  </metadata>
  <g
     inkscape:label="Layer 1"
     inkscape:groupmode="layer"
     id="layer1"
     transform="translate(-139.94258,-322.57343)">
    <g
       style="font-style:normal;font-weight:normal;font-size:40px;line-height:125%;font-family:sans-serif;letter-spacing:0px;word-spacing:0px;fill:#000000;fill-opacity:1;stroke:none;stroke-width:1px;stroke-linecap:butt;stroke-linejoin:miter;stroke-opacity:1"
       id="flowRoot3336">
      <path
         d="m 146.02258,349.93343 c 2.4,0 4.52,-0.92 6.32,-2.16 l 0.16,0 0.28,1.8 2.64,0 0,-19.84 -3.04,0 0,16 c -1.64,0.8 -3.4,1.56 -5.52,1.56 -2.92,0 -3.84,-1.04 -3.84,-3.6 l 0,-13.96 -3.08,0 0,14.4 c 0,3.84 2.2,5.8 6.08,5.8 z"
         style="font-style:normal;font-variant:normal;font-weight:normal;font-stretch:normal;font-size:40px;line-height:125%;font-family:'.Apple SD Gothic NeoI';-inkscape-font-specification:'.Apple SD Gothic NeoI, Normal';text-align:start;writing-mode:lr-tb;text-anchor:start"
         id="path3494" />
      <path
         d="m 161.23445,349.57343 3.04,0 0,-16.12 c 1.64,-0.76 3.72,-1.44 5.6,-1.44 3.16,0 4,1 4,3.4 l 0,14.16 3.04,0 0,-14.8 c 0,-3.84 -1.88,-5.4 -5.76,-5.4 -2.44,0 -5,0.88 -6.84,2.08 l -0.16,0 0,-1.72 -2.92,0 0,19.84 z"
         style="font-style:normal;font-variant:normal;font-weight:normal;font-stretch:normal;font-size:40px;line-height:125%;font-family:'.Apple SD Gothic NeoI';-inkscape-font-specification:'.Apple SD Gothic NeoI, Normal';text-align:start;writing-mode:lr-tb;text-anchor:start"
         id="path3496" />
      <path
         d="m 182.7607,349.57343 3.04,0 0,-19.8 -3.04,0 0,19.8 z m -0.04,-23.8 3.12,0 0,-3.2 -3.12,0 0,3.2 z"
         style="font-style:normal;font-variant:normal;font-weight:normal;font-stretch:normal;font-size:40px;line-height:125%;font-family:'.Apple SD Gothic NeoI';-inkscape-font-specification:'.Apple SD Gothic NeoI, Normal';text-align:start;writing-mode:lr-tb;text-anchor:start"
         id="path3498" />
      <path
         d="m 199.6232,349.93343 c 2.76,0 4.52,-0.8 5.8,-1.56 l 0,-2.48 c -1,0.56 -2.76,1.4 -5.44,1.4 -4.24,0 -6.36,-2.28 -6.36,-7.36 l 0,-0.96 c 0,-4.56 2.36,-7 5.96,-7 2.6,0 3.88,0.48 5.64,1.28 l 0,-2.56 c -1.32,-0.84 -2.88,-1.32 -5.48,-1.32 -5.12,0 -9.28,3.04 -9.28,10.08 l 0,0.6 c 0,6.52 3.48,9.88 9.16,9.88 z"
         style="font-style:normal;font-variant:normal;font-weight:normal;font-stretch:normal;font-size:40px;line-height:125%;font-family:'.Apple SD Gothic NeoI';-inkscape-font-specification:'.Apple SD Gothic NeoI, Normal';text-align:start;writing-mode:lr-tb;text-anchor:start"
         id="path3500" />
      <path
         d="m 217.39195,349.93343 c 5.36,0 9.04,-3.76 9.04,-10.08 l 0,-0.56 c 0,-6.28 -3.4,-9.92 -9,-9.92 -5.36,0 -9,3.76 -9,10.04 l 0,0.6 c 0,6.32 3.36,9.92 8.96,9.92 z m 0.08,-2.52 c -3.32,0 -5.92,-1.8 -5.92,-7.32 l 0,-1 c 0,-4.64 2.24,-7.2 5.84,-7.2 3.24,0 5.92,1.8 5.92,7.32 l 0,1 c 0,4.68 -2.24,7.2 -5.84,7.2 z"
         style="font-style:normal;font-variant:normal;font-weight:normal;font-stretch:normal;font-size:40px;line-height:125%;font-family:'.Apple SD Gothic NeoI';-inkscape-font-specification:'.Apple SD Gothic NeoI, Normal';text-align:start;writing-mode:lr-tb;text-anchor:start"
         id="path3502" />
      <path
         d="m 231.00008,349.57343 3.04,0 0,-16.12 c 1.64,-0.76 3.72,-1.44 5.6,-1.44 3.16,0 4,1 4,3.4 l 0,14.16 3.04,0 0,-14.8 c 0,-3.84 -1.88,-5.4 -5.76,-5.4 -2.44,0 -5,0.88 -6.84,2.08 l -0.16,0 0,-1.72 -2.92,0 0,19.84 z"
         style="font-style:normal;font-variant:normal;font-weight:normal;font-stretch:normal;font-size:40px;line-height:125%;font-family:'.Apple SD Gothic NeoI';-inkscape-font-specification:'.Apple SD Gothic NeoI, Normal';text-align:start;writing-mode:lr-tb;text-anchor:start"
         id="path3504" />
      <path
         d="m 260.56633,349.93343 c 3.2,0 5.48,-1 6.68,-1.84 l 0,-2.28 c -1.8,0.84 -3.56,1.48 -6.2,1.48 -4.24,0 -6.6,-1.92 -6.76,-6.88 l 13.52,0 0,-1.72 c 0,-6.16 -2.56,-9.32 -8,-9.32 -4.56,0 -8.64,3.08 -8.64,10 l 0,0.56 c 0,6.2 3.16,10 9.4,10 z m -0.84,-18.08 c 3.24,0 4.88,1.8 4.88,6.12 l -10.32,0 c 0.32,-4.68 2.96,-6.12 5.44,-6.12 z"
         style="font-style:normal;font-variant:normal;font-weight:normal;font-stretch:normal;font-size:40px;line-height:125%;font-family:'.Apple SD Gothic NeoI';-inkscape-font-specification:'.Apple SD Gothic NeoI, Normal';text-align:start;writing-mode:lr-tb;text-anchor:start"
         id="path3506" />
    </g>
    <flowRoot
       xml:space="preserve"
       id="flowRoot3344"
       style="font-style:normal;font-weight:normal;font-size:40px;line-height:125%;font-family:sans-serif;letter-spacing:0px;word-spacing:0px;fill:#000000;fill-opacity:1;stroke:none;stroke-width:1px;stroke-linecap:butt;stroke-linejoin:miter;stroke-opacity:1"><flowRegion
         id="flowRegion3346"><rect
           id="rect3348"
           width="238.02817"
           height="92.957748"
           x="-35.915493"
           y="609.40448" /></flowRegion><flowPara
         id="flowPara3350"></flowPara></flowRoot>  </g>
</svg>
