<?xml version="1.0" encoding="utf-8"?>
<!-- Generator: Adobe Illustrator 15.0.2, SVG Export Plug-In . SVG Version: 6.00 Build 0)  -->
<!DOCTYPE svg PUBLIC "-//W3C//DTD SVG 1.1//EN" "http://www.w3.org/Graphics/SVG/1.1/DTD/svg11.dtd">
<svg version="1.1" id="Layer_1" xmlns="http://www.w3.org/2000/svg" xmlns:xlink="http://www.w3.org/1999/xlink" x="0px" y="0px"
   width="580.079px" height="338.562px" viewBox="0 0 580.079 338.562" enable-background="new 0 0 580.079 338.562"
   xml:space="preserve">
<g>
  <path fill="#010101" d="M578.558,48.122L560.9,54.515c-7.014-22.23-26.794-36.538-53.605-36.538
    c-29.225,0-48.414,14.608-48.414,39.279c0,52.985,121.198,24.964,121.198,99.57c0,35.635-28.624,60.597-71.245,60.597
    c-39.589,0-63.331-18.877-79.77-49.022l16.438-10.045c10.946,23.132,31.037,41.11,61.501,41.11
    c35.316,0,53.595-16.139,53.595-42.942c0-53.294-121.207-27.102-121.207-99.577C439.392,14.007,478.07,0,506.694,0
    C538.96,0,568.213,14.617,578.558,48.122 M280.436,48.733c0,11.866,7.914,21.92,25.281,40.498
    c20.401-11.884,31.676-24.369,31.676-40.498c0-15.838-10.674-28.324-28.935-28.324C291.4,20.409,280.436,33.807,280.436,48.733
     M300.837,111.764c-27.697,15.227-39.88,27.402-39.88,46.281c0,21.621,19.479,39.589,44.451,39.589
    c22.55,0,34.106-10.354,46.584-30.445L300.837,111.764z M399.503,218.335l-35.327-37.759
    c-12.776,20.108-30.154,34.716-58.769,34.716c-36.837,0-63.95-25.571-63.95-56.937c0-26.193,16.146-42.332,47.221-59.998
    c-17.668-17.65-27.422-32.276-27.422-49.625c0-25.273,21.319-45.373,47.202-45.373c27.413,0,47.804,20.099,47.804,45.373
    c0,24.352-19.18,40.8-38.358,53.286l43.841,47.811l25.894-42.02l15.525,9.735l-28.631,46.592l39.287,41.72L399.503,218.335z
     M192.744,2.75v212.542h-19.489V41.729l-70.026,135.806H89.513L19.471,42.02v173.272H0V2.75h20.4l76.117,146.77L172.635,2.75
    H192.744z"/>
</g>
<polygon fill="#010101" points="139.558,318.099 160.267,318.099 160.267,312.544 139.558,312.544 139.558,298.829 161.761,298.829 
  161.761,293.265 133.766,293.265 133.766,337.735 163.018,337.735 163.018,332.17 139.558,332.17 "/>
<g>
  <path fill="#010101" d="M192.834,312.416l-0.255-0.081c-6.301-1.802-9.862-3.024-9.862-7.222c0-4.117,3.479-6.759,8.861-6.759
    c4.48,0,7.786,1.831,9.327,5.174l0.617,1.347l4.745-2.768l-0.445-1.074c-3.153-7.586-11.521-8.188-14.025-8.188
    c-5.464,0-14.699,2.605-14.699,12.33c0,8.532,7.613,10.773,14.335,12.75c6.629,1.939,10.364,3.244,10.364,7.605
    c0,4.57-3.936,7.541-10.037,7.541c-5.609,0-9.708-2.433-11.921-7.051l-0.629-1.338l-4.862,2.888l0.564,1.119
    c3.124,6.366,9.035,9.872,16.667,9.872c9.29,0,15.773-5.455,15.773-13.277C207.351,316.569,199.318,314.273,192.834,312.416"/>
</g>
<polygon fill="#010101" points="217.496,298.829 231.031,298.829 231.031,337.735 236.84,337.735 236.84,298.829 250.382,298.829 
  250.382,293.265 217.496,293.265 "/>
<polygon fill="#010101" points="298.741,300.613 305.397,300.613 305.397,337.735 311.119,337.735 311.2,295.059 298.86,295.059 "/>
<path fill="#010101" d="M422.818,322.151l13.905-19.262v19.262H422.818z M439.081,295.059h-3.24l-20.767,28.779v3.87h21.649v10.027
  h5.628v-10.027h5.492v-4.837l-5.492-0.537v-27.275h-2.913"/>
<g>
  <path fill="#010101" d="M343.421,333.455c-5.346,0-9.526-2.624-9.526-8.088c0-5.165,4.555-7.732,9.526-7.732
    c4.963,0,9.49,2.567,9.49,7.732C352.911,330.831,348.749,333.455,343.421,333.455 M335.016,306.16c0-4.536,2.996-7.176,8.405-7.176
    c5.373,0,8.396,2.64,8.396,7.176c0,4.544-4.18,6.812-8.396,6.812C338.866,312.972,335.016,310.385,335.016,306.16 M351.263,315.24
    c3.732-2.021,5.884-5.083,5.884-9.399c0-7.658-6.185-11.52-13.726-11.52c-7.559,0-13.762,3.861-13.762,11.52
    c0,4.316,2.141,7.378,5.839,9.399c-3.925,1.83-7.176,5.037-7.176,10.054c0,7.614,5.463,12.823,15.099,12.823
    c9.626,0,15.082-5.382,15.082-12.823C358.503,320.277,355.242,317.07,351.263,315.24"/>
  <path fill="#010101" d="M385.878,333.455c-5.354,0-9.524-2.624-9.524-8.088c0-5.165,4.543-7.732,9.524-7.732
    c4.973,0,9.518,2.567,9.518,7.732C395.396,330.831,391.215,333.455,385.878,333.455 M377.473,306.16
    c0-4.536,3.006-7.176,8.405-7.176c5.402,0,8.406,2.64,8.406,7.176c0,4.544-4.181,6.812-8.406,6.812
    C381.325,312.972,377.473,310.385,377.473,306.16 M393.719,315.24c3.743-2.021,5.894-5.083,5.894-9.399
    c0-7.658-6.193-11.52-13.734-11.52c-7.559,0-13.752,3.861-13.752,11.52c0,4.316,2.15,7.378,5.839,9.399
    c-3.926,1.83-7.187,5.037-7.187,10.054c0,7.614,5.455,12.823,15.1,12.823c9.617,0,15.092-5.382,15.092-12.823
    C400.97,320.277,397.709,317.07,393.719,315.24"/>
</g>
</svg>
