<?xml version="1.0" encoding="utf-8"?>
<!-- Generator: Adobe Illustrator 15.0.0, SVG Export Plug-In  -->
<!DOCTYPE svg PUBLIC "-//W3C//DTD SVG 1.1//EN" "http://www.w3.org/Graphics/SVG/1.1/DTD/svg11.dtd" [
	<!ENTITY ns_flows "http://ns.adobe.com/Flows/1.0/">
]>
<svg version="1.1"
	 xmlns="http://www.w3.org/2000/svg" xmlns:xlink="http://www.w3.org/1999/xlink" xmlns:a="http://ns.adobe.com/AdobeSVGViewerExtensions/3.0/"
	 x="0px" y="0px" width="325px" height="51px" viewBox="0 -1.003 325 51" enable-background="new 0 -1.003 325 51"
	 xml:space="preserve">
<defs>
</defs>
<path d="M154.411,23.361c0,4.067,3.109,4.551,4.649,4.551c0.507,0,0.819-0.047,0.819-0.047v-2.073c0,0-0.216,0.05-0.554,0.05
	c-0.893,0-2.579-0.314-2.579-2.746v-5.592h2.916v-1.879h-2.916v-3.348h-2.289v3.348h-1.639v1.879h1.589v5.857H154.411z"/>
<path d="M161.775,13.337v14.479h2.338v-5.711c0-0.578,0.05-1.131,0.215-1.613c0.507-1.759,2.001-3.014,3.854-3.014
	c1.955,0,2.316,1.351,2.316,3.062v5.733c0,1.084,0.456,1.543,1.541,1.543h2.289v-2.002h-0.987c-0.339,0-0.531-0.168-0.531-0.527
	V20.01c0-3.107-1.3-4.674-4.165-4.674c-2.436,0-3.999,1.542-4.53,2.722h-0.051c0,0,0.051-0.434,0.051-1.011V12.3
	c0-1.036-0.456-1.493-1.543-1.493h-2.313v1.998h0.988C161.583,12.807,161.775,12.976,161.775,13.337"/>
<path d="M181.683,28.106c2.891,0,4.695-1.784,4.695-1.784l-1.011-1.662c0,0-1.469,1.422-3.565,1.422
	c-2.169,0-4.048-1.471-4.191-4.072h8.891c0,0,0.071-0.65,0.071-0.963c0-3.156-1.832-5.711-5.253-5.711
	c-3.469,0-6.121,2.506-6.121,6.385C175.199,25.333,177.826,28.106,181.683,28.106 M181.297,17.191c1.517,0,2.794,1.086,2.865,3.109
	h-6.456C178.069,18.275,179.515,17.191,181.297,17.191"/>
<path d="M208.108,18.651c0.191-0.421,0.392-0.97,0.559-1.462c0.001,0.445,0.014,0.945,0.052,1.391l0.578,7.614
	c0.092,1.098,0.437,1.833,1.823,1.833h2.936V24.93h-0.96c-0.176,0-0.3-0.057-0.317-0.334L211.653,10.5h-3.609l-3.574,8.273
	c-0.247,0.6-0.508,1.316-0.673,1.791c-0.165-0.475-0.423-1.193-0.674-1.795l-3.572-8.27h-3.61l-1.121,14.096
	c-0.021,0.277-0.146,0.334-0.321,0.334h-0.96v3.098h2.935c1.206,0,1.742-0.532,1.851-1.835l0.553-7.612
	c0.038-0.445,0.052-0.949,0.053-1.399c0.165,0.497,0.369,1.05,0.558,1.47l2.9,6.437h2.824L208.108,18.651z"/>
<path d="M221.485,15.03c-3.952,0-6.931,2.854-6.931,6.642c0,3.788,2.979,6.646,6.931,6.646c3.965,0,6.956-2.858,6.956-6.646
	C228.441,17.885,225.45,15.03,221.485,15.03 M221.485,25.291c-1.953,0-3.43-1.555-3.43-3.619c0-2.063,1.477-3.618,3.43-3.618
	c1.966,0,3.45,1.556,3.45,3.618C224.936,23.736,223.451,25.291,221.485,25.291"/>
<path d="M237.122,18.245c1.235,0,1.715,0.643,1.715,2.295v5.637c0,1.278,0.571,1.85,1.854,1.85h3.123v-3h-1.175
	c-0.222,0-0.318-0.097-0.318-0.317v-4.795c0-3.241-1.512-4.885-4.5-4.885c-2.234,0-3.504,1.186-4.125,2.027v-0.154
	c0-1.008-0.665-1.585-1.826-1.585h-3.03v3.024h1.176c0.232,0,0.32,0.086,0.32,0.318v9.366h3.456V22.18
	c0-0.588,0.076-1.115,0.232-1.58C234.455,19.147,235.644,18.245,237.122,18.245"/>
<path d="M250.919,28.318c3.11,0,5.009-1.84,5.087-1.919l0.119-0.114l-1.498-2.488l-0.189,0.18c-0.016,0.012-1.432,1.314-3.301,1.314
	c-1.823,0-3.15-1.121-3.447-2.877h8.434l0.016-0.189c0.004-0.034,0.075-0.787,0.075-1.154c0-3.611-2.274-6.04-5.655-6.04
	c-3.802,0-6.452,2.731-6.452,6.642C244.106,25.522,246.971,28.318,250.919,28.318 M247.816,19.871
	c0.381-1.313,1.369-2.059,2.742-2.059c1.109,0,1.957,0.854,2.086,2.059H247.816z"/>
<path d="M259.511,30.086c-0.903,0-1.595-0.763-1.602-0.772l-0.2-0.224l-1.396,2.566l0.104,0.11c0.05,0.056,1.266,1.32,3.263,1.32
	c2.111,0,3.799-1.219,4.628-3.338l4.409-11.106c0.098-0.248,0.187-0.301,0.501-0.301h0.574v-3.024h-2.282
	c-0.966,0-1.531,0.399-1.838,1.3l-2.098,6.141c-0.085,0.252-0.168,0.559-0.236,0.84c-0.072-0.283-0.159-0.594-0.26-0.846
	l-2.407-6.14c-0.345-0.931-0.854-1.295-1.812-1.295h-2.235v3.024h0.573c0.269,0,0.348,0.035,0.458,0.308l4.06,9.144l-0.376,0.857
	C260.96,29.576,260.31,30.086,259.511,30.086"/>
<path d="M167.305,46.219l-5.11-14.04h-3.593l-5.138,14.046c-0.112,0.338-0.22,0.386-0.546,0.386h-0.595v3.098h2.113
	c1.282,0,1.775-0.345,2.198-1.538l1.012-2.848h5.482l1.01,2.848c0.419,1.177,0.938,1.538,2.224,1.538h2.089V46.61h-0.599
	C167.524,46.61,167.421,46.563,167.305,46.219 M160.385,36.486c0.135,0.546,0.322,1.273,0.498,1.803l1.375,4.008h-3.747l1.376-4.01
	C160.062,37.76,160.251,37.032,160.385,36.486"/>
<path d="M181.343,46.388V34.028c0-1.242-0.606-1.85-1.852-1.85h-3.125v3.026h1.177c0.23,0,0.317,0.087,0.317,0.319v2.167
	c0,0.06,0.002,0.117,0.003,0.174c-0.49-0.474-1.514-1.154-3.357-1.154c-3.415,0-5.8,2.731-5.8,6.644
	c0,3.973,2.282,6.643,5.678,6.643c2.03,0,3.159-0.98,3.676-1.609c0.038,0.549,0.344,1.321,1.721,1.321h3.032v-3.001h-1.149
	C181.441,46.706,181.343,46.609,181.343,46.388 M175.06,46.996c-1.714,0-2.826-1.431-2.826-3.645c0-2.149,1.157-3.595,2.874-3.595
	c1.95,0,2.825,1.795,2.825,3.571C177.934,46.032,176.449,46.996,175.06,46.996"/>
<path d="M191.653,38.293l-2.314,6.463c-0.1,0.294-0.188,0.635-0.263,0.939c-0.073-0.307-0.17-0.649-0.278-0.945l-2.313-6.459
	c-0.348-0.932-0.908-1.296-2.005-1.296h-1.971v3.026h0.476c0.267,0,0.395,0.081,0.479,0.297l3.568,9.389h3.931l3.569-9.388
	c0.08-0.217,0.212-0.298,0.476-0.298h0.5v-3.026h-1.849C192.573,36.997,191.995,37.374,191.653,38.293"/>
<path d="M201.289,46.389v-7.54c0-1.262-0.58-1.852-1.826-1.852h-3.127v3.026h1.177c0.23,0,0.319,0.085,0.319,0.316v7.518
	c0,1.261,0.58,1.85,1.825,1.85h3.125v-3.001h-1.175C201.387,46.706,201.289,46.609,201.289,46.389"/>
<rect x="197.976" y="32.179" width="3.073" height="3.24"/>
<path d="M213.791,45.306c-0.017,0.016-1.505,1.593-3.483,1.593c-1.803,0-3.621-1.102-3.621-3.57c0-2.097,1.442-3.619,3.428-3.619
	c0.625,0,1.547,0.239,1.547,0.752v0.888h3.121v-1.656c0-2.188-2.79-2.981-4.668-2.981c-4.552,0-6.934,3.341-6.934,6.641
	c0,3.85,2.886,6.644,6.862,6.644c3.408,0,5.264-2.2,5.341-2.293l0.098-0.114l-1.499-2.489L213.791,45.306z"/>
<path d="M222.2,36.711c-3.798,0-6.449,2.731-6.449,6.641c0,3.85,2.866,6.645,6.809,6.645c3.112,0,5.013-1.837,5.092-1.915
	l0.117-0.116l-1.499-2.487l-0.188,0.179c-0.017,0.013-1.43,1.314-3.302,1.314c-1.822,0-3.15-1.12-3.444-2.878h8.433l0.017-0.19
	c0.002-0.031,0.073-0.785,0.073-1.153C227.857,39.138,225.584,36.711,222.2,36.711 M222.2,39.493c1.108,0,1.958,0.853,2.088,2.059
	h-4.828C219.841,40.238,220.828,39.493,222.2,39.493"/>
<path d="M242.176,39.141c-1.571-0.675-2.926-1.259-2.926-2.339c0-0.954,0.944-1.622,2.293-1.622c0.992,0,2.054,0.447,2.054,1.114
	v0.982h3.266v-1.801c0-2.611-3.247-3.585-5.296-3.585c-3.43,0-5.92,2.116-5.92,5.03c0,3.195,2.796,4.479,5.043,5.512
	c1.611,0.741,3.004,1.381,3.004,2.486c0,1.253-1.13,1.813-2.247,1.813c-2.259,0-3.969-1.932-3.983-1.951l-0.166-0.189l-2.047,2.543
	l0.104,0.133c0.089,0.111,2.204,2.729,6.046,2.729c3.471,0,5.897-2.155,5.897-5.244C247.299,41.349,244.457,40.126,242.176,39.141"
	/>
<path d="M254.702,36.711c-3.8,0-6.451,2.731-6.451,6.641c0,3.85,2.865,6.645,6.813,6.645c3.109,0,5.006-1.837,5.086-1.915
	l0.118-0.116l-1.498-2.487l-0.189,0.179c-0.014,0.013-1.428,1.314-3.301,1.314c-1.822,0-3.152-1.12-3.444-2.878h8.431l0.02-0.19
	c0.002-0.031,0.069-0.785,0.069-1.153C260.355,39.138,258.087,36.711,254.702,36.711 M254.702,39.493
	c1.11,0,1.958,0.853,2.084,2.059h-4.824C252.34,40.238,253.328,39.493,254.702,39.493"/>
<path d="M269.525,36.828c-1.512,0-2.904,0.908-3.69,2.338v-0.465c0-1.13-0.622-1.704-1.849-1.704h-3.006v3.026h1.174
	c0.229,0,0.318,0.085,0.318,0.316v9.367h3.458v-5.078c0-0.682,0.085-1.334,0.256-1.938c0.542-1.79,1.981-2.428,3.147-2.428
	c0.41,0,0.712,0.045,0.715,0.045l0.242,0.038V36.91l-0.176-0.029C270.1,36.879,269.807,36.828,269.525,36.828"/>
<path d="M280.228,38.293l-2.315,6.463c-0.099,0.294-0.187,0.635-0.259,0.939c-0.076-0.307-0.171-0.649-0.28-0.945l-2.314-6.459
	c-0.346-0.932-0.907-1.296-2.006-1.296h-1.968v3.026h0.476c0.265,0,0.393,0.081,0.476,0.297l3.571,9.389h3.928l3.569-9.388
	c0.084-0.217,0.214-0.298,0.477-0.298h0.502v-3.026h-1.85C281.15,36.997,280.569,37.374,280.228,38.293"/>
<rect x="286.549" y="32.179" width="3.073" height="3.24"/>
<path d="M289.863,46.389v-7.54c0-1.262-0.579-1.852-1.824-1.852h-3.128v3.026h1.176c0.232,0,0.318,0.085,0.318,0.316v7.518
	c0,1.261,0.579,1.85,1.826,1.85h3.124v-3.001h-1.174C289.96,46.706,289.863,46.609,289.863,46.389"/>
<path d="M302.362,45.306c-0.016,0.016-1.501,1.593-3.481,1.593c-1.803,0-3.62-1.102-3.62-3.57c0-2.097,1.44-3.619,3.427-3.619
	c0.622,0,1.546,0.239,1.546,0.752v0.888h3.122v-1.656c0-2.188-2.792-2.981-4.668-2.981c-4.55,0-6.932,3.341-6.932,6.641
	c0,3.85,2.885,6.644,6.859,6.644c3.41,0,5.264-2.2,5.342-2.293l0.095-0.114l-1.498-2.487L302.362,45.306z"/>
<path d="M316.356,43.902c0.005-0.032,0.073-0.785,0.073-1.153c0-3.612-2.273-6.04-5.655-6.04c-3.799,0-6.451,2.731-6.451,6.642
	c0,3.851,2.865,6.645,6.813,6.645c3.112,0,5.006-1.838,5.085-1.915l0.119-0.116l-1.496-2.488l-0.189,0.18
	c-0.015,0.014-1.433,1.314-3.301,1.314c-1.822,0-3.152-1.12-3.446-2.878h8.43L316.356,43.902z M310.775,39.493
	c1.107,0,1.96,0.853,2.085,2.059h-4.824C308.415,40.238,309.4,39.493,310.775,39.493"/>
<path fill="#72BF44" d="M91.335,0c-27.37,0-49.638,22.268-49.638,49.638h3.637c0-25.364,20.638-46.001,46.001-46.001
	c25.365,0,46.002,20.637,46.002,46.001h3.637C140.974,22.268,118.708,0,91.335,0"/>
<path fill="#72BF44" d="M91.335,6.742c-23.652,0-42.895,19.245-42.895,42.897h3.637c0-21.646,17.611-39.259,39.258-39.259
	c21.647,0,39.259,17.612,39.259,39.259h3.639C134.232,25.985,114.987,6.742,91.335,6.742"/>
<path fill="#72BF44" d="M91.335,13.486c-19.937,0-36.152,16.218-36.152,36.153h3.637c0-17.93,14.587-32.517,32.516-32.517
	c17.931,0,32.516,14.588,32.516,32.517h3.64C127.49,29.704,111.272,13.486,91.335,13.486"/>
<path fill="#72BF44" d="M91.335,20.227c-16.214,0-29.41,13.192-29.41,29.411h3.639c0-14.211,11.56-25.772,25.771-25.772
	c14.212,0,25.774,11.562,25.774,25.772h3.638C120.747,33.419,107.553,20.227,91.335,20.227"/>
<path fill="#72BF44" d="M91.335,26.971c-12.499,0-22.667,10.169-22.667,22.669h3.636c0-10.493,8.54-19.03,19.031-19.03
	c10.494,0,19.033,8.537,19.033,19.03h3.636C114.004,37.139,103.835,26.971,91.335,26.971"/>
<g>
	<defs>
		<path id="SVGID_5_" d="M0,49.64h3.638c0-17.931,14.585-32.517,32.515-32.517c5.35,0,10.402,1.301,14.859,3.601
			c0.721-0.999,1.476-1.974,2.267-2.917c-5.1-2.754-10.933-4.32-17.125-4.32C16.219,13.484,0,29.704,0,49.64"/>
	</defs>
	<clipPath id="SVGID_6_">
		<use xlink:href="#SVGID_5_"  overflow="visible"/>
	</clipPath>
	
		<linearGradient id="SVGID_7_" gradientUnits="userSpaceOnUse" x1="-129.3735" y1="-139.7715" x2="-128.4702" y2="-139.7715" gradientTransform="matrix(66.6665 0 0 66.6665 8624.9238 9349.5928)">
		<stop  offset="0" style="stop-color:#72BF44"/>
		<stop  offset="1" style="stop-color:#2F631C"/>
	</linearGradient>
	<rect y="13.484" clip-path="url(#SVGID_6_)" fill="url(#SVGID_7_)" width="53.278" height="36.155"/>
</g>
<g>
	<defs>
		<path id="SVGID_4_" d="M6.743,49.638h3.637c0-14.21,11.56-25.771,25.772-25.771c4.048,0,7.876,0.939,11.289,2.611
			c0.572-1.078,1.18-2.131,1.826-3.159c-3.949-1.977-8.404-3.091-13.115-3.091C19.937,20.229,6.743,33.419,6.743,49.638"/>
	</defs>
	<clipPath id="SVGID_8_">
		<use xlink:href="#SVGID_4_"  overflow="visible"/>
	</clipPath>
	
		<linearGradient id="SVGID_9_" gradientUnits="userSpaceOnUse" x1="-128.8877" y1="-138.2646" x2="-127.9838" y2="-138.2646" gradientTransform="matrix(53.2094 0 0 53.2094 6864.7739 7391.9185)">
		<stop  offset="0" style="stop-color:#72BF44"/>
		<stop  offset="1" style="stop-color:#2F631C"/>
	</linearGradient>
	<rect x="6.743" y="20.229" clip-path="url(#SVGID_8_)" fill="url(#SVGID_9_)" width="42.524" height="29.411"/>
</g>
<g>
	<defs>
		<path id="SVGID_3_" d="M13.485,49.64h3.637c0-10.493,8.536-19.032,19.031-19.032c3.07,0,5.972,0.732,8.542,2.03
			c0.418-1.145,0.877-2.271,1.376-3.374c-2.997-1.465-6.363-2.293-9.919-2.293C23.654,26.971,13.485,37.14,13.485,49.64"/>
	</defs>
	<clipPath id="SVGID_10_">
		<use xlink:href="#SVGID_3_"  overflow="visible"/>
	</clipPath>
	
		<linearGradient id="SVGID_11_" gradientUnits="userSpaceOnUse" x1="-128.1333" y1="-136.0103" x2="-127.2289" y2="-136.0103" gradientTransform="matrix(40.7753 0 0 40.7753 5238.1572 5584.1719)">
		<stop  offset="0" style="stop-color:#72BF44"/>
		<stop  offset="1" style="stop-color:#2F631C"/>
	</linearGradient>
	<rect x="13.485" y="26.971" clip-path="url(#SVGID_10_)" fill="url(#SVGID_11_)" width="32.588" height="22.669"/>
</g>
<g>
	<defs>
		<path id="SVGID_2_" d="M20.23,49.64h3.638c0-6.774,5.514-12.287,12.286-12.287c2.441,0,4.715,0.715,6.628,1.948
			c0.266-1.242,0.577-2.467,0.932-3.674c-2.25-1.219-4.826-1.916-7.561-1.916C27.373,33.711,20.23,40.858,20.23,49.64"/>
	</defs>
	<clipPath id="SVGID_12_">
		<use xlink:href="#SVGID_2_"  overflow="visible"/>
	</clipPath>
	
		<linearGradient id="SVGID_13_" gradientUnits="userSpaceOnUse" x1="-126.9009" y1="-132.2578" x2="-125.9975" y2="-132.2578" gradientTransform="matrix(29.384 0 0 29.384 3749.0955 3927.9363)">
		<stop  offset="0" style="stop-color:#72BF44"/>
		<stop  offset="1" style="stop-color:#2F631C"/>
	</linearGradient>
	<rect x="20.23" y="33.711" clip-path="url(#SVGID_12_)" fill="url(#SVGID_13_)" width="23.484" height="15.929"/>
</g>
<g>
	<defs>
		<path id="SVGID_1_" d="M26.971,49.64h3.638c0-3.058,2.487-5.544,5.544-5.544s5.544,2.486,5.544,5.544v-0.002
			c0-2.348,0.167-4.654,0.483-6.916c-1.613-1.406-3.72-2.266-6.028-2.266C31.09,40.456,26.971,44.576,26.971,49.64"/>
	</defs>
	<clipPath id="SVGID_14_">
		<use xlink:href="#SVGID_1_"  overflow="visible"/>
	</clipPath>
	
		<linearGradient id="SVGID_15_" gradientUnits="userSpaceOnUse" x1="-124.4736" y1="-124.98" x2="-123.5697" y2="-124.98" gradientTransform="matrix(19.0307 0 0 19.0307 2395.793 2423.5042)">
		<stop  offset="0" style="stop-color:#72BF44"/>
		<stop  offset="1" style="stop-color:#2F631C"/>
	</linearGradient>
	<rect x="26.971" y="40.456" clip-path="url(#SVGID_14_)" fill="url(#SVGID_15_)" width="15.21" height="9.184"/>
</g>
<path d="M321.295,33.548c0,1.29-1.04,2.332-2.332,2.332c-1.293,0-2.333-1.042-2.333-2.332c0-1.291,1.04-2.334,2.333-2.334
	C320.255,31.214,321.295,32.257,321.295,33.548 M316.866,33.548c0,1.177,0.91,2.126,2.103,2.126c1.191,0,2.089-0.956,2.089-2.135
	c0-1.189-0.892-2.119-2.089-2.119C317.764,31.421,316.866,32.344,316.866,33.548 M318.114,32.169h1.035
	c0.623,0,0.899,0.262,0.899,0.763c0,0.447-0.32,0.666-0.712,0.729l0.823,1.265h-0.263l-0.829-1.272h-0.718v1.272h-0.237
	L318.114,32.169L318.114,32.169z M318.352,33.446h0.584c0.419,0,0.875-0.044,0.875-0.522c0-0.426-0.367-0.55-0.698-0.55h-0.761
	V33.446z"/>
</svg>
